<?xml version="1.0" encoding="utf-8"?>
<!-- Generator: Adobe Illustrator 25.2.1, SVG Export Plug-In . SVG Version: 6.00 Build 0)  -->
<svg version="1.1" xmlns="http://www.w3.org/2000/svg" xmlns:xlink="http://www.w3.org/1999/xlink" x="0px" y="0px"
	 viewBox="0 0 432 432" style="enable-background:new 0 0 432 432;" xml:space="preserve">
<style type="text/css">
	.st0{fill:url(#SVGID_1_);}
	.st1{fill:#2E3388;}
</style>
<g id="fill">
	
		<radialGradient id="SVGID_1_" cx="223.8387" cy="179.0645" r="114.2771" fx="164.0292" fy="100.9489" gradientTransform="matrix(0.9935 0.114 -0.1193 1.0396 22.8202 -32.6103)" gradientUnits="userSpaceOnUse">
		<stop  offset="0.115" style="stop-color:#FFFFFF"/>
		<stop  offset="0.2192" style="stop-color:#FFF9E3"/>
		<stop  offset="0.4447" style="stop-color:#FEE89C"/>
		<stop  offset="0.7721" style="stop-color:#FCCE2A"/>
		<stop  offset="0.8255" style="stop-color:#FCCA17"/>
	</radialGradient>
	<ellipse class="st0" cx="221.26" cy="172.35" rx="92.52" ry="100.06"/>
</g>
<g id="Q">
	<path class="st1" d="M372.73,150.64c-1.56,4.88-3.02,9.48-4.56,14.3c4.91,1.07,9.24,1.93,13.54,2.97
		c7.14,1.74,14.13,3.9,20.15,8.34c4.41,3.25,7.15,7.4,6.39,13.17c-0.57,4.35-3.16,7.49-6.44,10.11c-6.53,5.23-14.25,8-22.12,10.34
		c-15.6,4.65-31.61,7.09-47.75,8.86c-4.77,0.52-9.55,0.94-14.29,1.61c-0.87,0.12-1.93,1.08-2.34,1.92
		c-7.35,15.21-17.79,27.89-31.18,38.13c-16.03,12.25-34.28,18.74-54.24,20.67c-3.64,0.35-7.3,0.46-10.96,0.69
		c-0.03,0-0.06,0.13-0.19,0.46c1.54,0.46,3.09,0.86,4.6,1.38c14.26,4.84,26.84,12.84,39.38,20.91
		c11.36,7.31,22.42,15.13,34.13,21.82c14.96,8.55,31.14,13.58,48.67,12.92c18.68-0.7,35.47-6.13,49.11-20.11
		c1.53,1.84,3.09,3.55,4.39,5.44c0.28,0.41-0.16,1.61-0.6,2.19c-6.79,8.99-15.42,15.83-25.2,21.27c-16.85,9.37-34.76,11.06-53.5,7.7
		c-17.61-3.16-32.89-11.3-47.1-21.64c-12.41-9.02-24.48-18.52-36.76-27.71c-9.94-7.44-20.88-12.55-33.36-13.97
		c-21.34-2.43-39.1,4.5-53.44,20.39c-0.58,0.65-1.15,1.31-1.72,1.97c-0.51,0.59-1.02,1.18-1.7,1.98c-2.69-4.02-5.28-7.9-8.02-12
		c7.22-7.05,15.55-12.44,24.7-16.66c9.13-4.21,18.75-6.77,29.29-8.56c-5.95-1.71-11.24-2.99-16.37-4.75
		c-27.34-9.42-46.62-27.58-58.05-54.08c-0.74-1.72-1.68-2.29-3.46-2.48c-20.56-2.15-41.06-4.79-60.98-10.53
		c-6.57-1.89-12.92-4.66-19.19-7.46c-2.63-1.17-5.01-3.21-7.07-5.28c-4.46-4.51-4.23-10.13,0.33-14.56
		c4.35-4.23,9.79-6.63,15.34-8.73c13.51-5.12,27.59-8.04,41.79-10.38c7.65-1.26,15.35-2.26,23.04-3.28
		c1.67-0.22,2.54-0.62,2.83-2.57c3.46-23.77,13.97-43.99,31.02-60.84c18.97-18.75,42.01-28.11,68.43-29.82
		c16.44-1.07,32.61,0.26,48.31,5.41c27.07,8.89,46.11,26.77,57.89,52.5c6.32,13.82,9.08,28.5,9.87,43.6
		c0.04,0.77,0.13,1.55,0.24,2.78C341.43,162.86,357.09,156.74,372.73,150.64z M217.04,205.25c22-0.66,40.83-1.18,59.66-1.83
		c9.59-0.33,19.16-1.04,28.75-1.28c3.03-0.07,3.78-1.54,4.23-3.99c3.28-17.78,3.46-35.52-0.56-53.2
		c-4.65-20.44-14.81-37.66-30.69-51.37c-13.21-11.39-28.71-17.51-45.98-19.33c-14.07-1.48-27.9-0.4-41.25,4.42
		c-22.6,8.15-38.46,23.95-48.9,45.12c-12.2,24.73-13.05,50.8-7.34,77.35c0.15,0.71,1.49,1.61,2.33,1.66
		c4.96,0.35,9.93,0.54,14.9,0.68C174.85,204.12,197.52,204.72,217.04,205.25z M142.33,221.02c12.49,26.72,39.48,50.1,77.57,50.68
		c40.13,0.62,68.36-22.15,81.53-49.86C248.4,224.82,195.42,224.97,142.33,221.02z M107.86,172.64c-0.38,0-0.73-0.04-1.07,0.01
		c-18.12,2.39-36.26,4.63-54.35,7.27c-4.59,0.67-9.07,2.4-13.44,4.05c-1.48,0.56-3.57,2.54-3.43,3.62c0.18,1.44,2.05,3.17,3.59,3.82
		c3.43,1.43,7.05,2.53,10.69,3.3c17.26,3.65,34.83,4.83,52.37,6.25c2.83,0.23,5.67,0.37,8.37,0.54
		C109.66,191.73,108.77,182.32,107.86,172.64z M326.07,170.42c-0.99,10.44-1.94,20.54-2.91,30.77c0.27-0.01,0.68-0.01,1.09-0.05
		c16.3-1.64,32.63-3,48.87-5.07c6.75-0.86,13.43-2.88,19.91-5.07c4.41-1.49,4.5-5.04,0.42-7.35c-2.68-1.52-5.72-2.6-8.73-3.32
		c-4.95-1.19-10-1.94-15.01-2.87c-0.2,0.24-0.4,0.48-0.6,0.71c1.25,3.44,2.49,6.87,3.83,10.55
		C357.18,182.56,341.57,176.47,326.07,170.42z"/>
</g>
</svg>
